<svg width="24" height="24" viewBox="0 0 24 24" fill="none" xmlns="http://www.w3.org/2000/svg">
<path fill-rule="evenodd" clip-rule="evenodd" d="M20.9139 19.5819L19.5 20.9961L16.5679 18.064C12.5565 19.9488 7.63971 19.2163 4.33194 15.8666L1.28846 12.7846C0.903847 12.3951 0.903847 11.7688 1.28846 11.3793L4.33194 8.2973C4.74973 7.87422 5.19319 7.49288 5.65725 7.15331L2.91792 4.41401L4.33194 3L20.9139 19.5819ZM15.0409 16.537L14.032 15.5281C13.4365 15.88 12.7418 16.082 12 16.082C9.79086 16.082 8 14.2911 8 12.082C8 11.3401 8.20195 10.6455 8.55386 10.0499L7.09254 8.5886C6.62049 8.90886 6.17213 9.2802 5.75502 9.70259L3.4054 12.082L5.75502 14.4613C8.26699 17.0051 11.9124 17.697 15.0409 16.537ZM12.5181 14.0142L10.0678 11.5638C10.0236 11.7291 10 11.9028 10 12.082C10 13.1865 10.8954 14.082 12 14.082C12.1792 14.082 12.3529 14.0584 12.5181 14.0142Z" fill="#121212"/>
<path d="M9.52944 5.36904C13.0581 4.53715 16.9188 5.51324 19.6681 8.2973L22.7115 11.3793C23.0962 11.7688 23.0962 12.3951 22.7115 12.7846L19.8464 15.686L18.4322 14.2718L20.5946 12.082L18.245 9.70259C16.3345 7.76788 13.7683 6.90442 11.2726 7.11219L9.52944 5.36904Z" fill="#121212"/>
<path d="M12.2501 8.08965L15.9923 11.8319C15.8683 9.82195 14.26 8.21363 12.2501 8.08965Z" fill="#121212"/>
</svg>
