<svg width="24" height="24" viewBox="0 0 24 24" fill="none" xmlns="http://www.w3.org/2000/svg">
<path fill-rule="evenodd" clip-rule="evenodd" d="M4.33194 8.21533C8.56543 3.92822 15.4346 3.92822 19.6681 8.21533L22.7115 11.2974C23.0962 11.6868 23.0962 12.3132 22.7115 12.7026L19.6681 15.7847C15.4346 20.0718 8.56543 20.0718 4.33194 15.7847L1.28846 12.7026C0.903847 12.3132 0.903847 11.6868 1.28846 11.2974L4.33194 8.21533ZM18.245 9.62062C14.7945 6.12646 9.20548 6.12646 5.75502 9.62062L3.4054 12L5.75502 14.3794C9.20548 17.8735 14.7945 17.8735 18.245 14.3794L20.5946 12L18.245 9.62062ZM12 10C10.8954 10 10 10.8954 10 12C10 13.1046 10.8954 14 12 14C13.1046 14 14 13.1046 14 12C14 10.8954 13.1046 10 12 10ZM8 12C8 9.79086 9.79086 8 12 8C14.2091 8 16 9.79086 16 12C16 14.2091 14.2091 16 12 16C9.79086 16 8 14.2091 8 12Z" fill="#121212"/>
</svg>
